PathFileType	4	(X/Y/Z)	OpenSim_Sub02_EMGBaseline_Gyro.trc
DataRate	CameraRate	NumFrames	NumMarkers	Units	OrigDataRate	OrigDataStartFrame	OrigNumFrames
100	100	20	8	m	100	1682	6727
Frame#	Time	torso_imu_offset_imu	pelvis_imu_offset_imu	tibia_r_imu_offset_imu	femur_r_imu_offset_imu	tibia_l_imu_offset_imu	femur_l_imu_offset_imu	toes_r_imu_offset_imu	toes_l_imu_offset_imu
				X1	Y1	Z1	X2	Y2	Z2	X3	Y3	Z3	X4	Y4	Z4	X5	Y5	Z5	X6	Y6	Z6	X7	Y7	Z7	X8		Y8	Z8	

1682	16.81000000	-0.25699311	0.27779019	-0.27181997	-0.41280488	-0.01712499	-0.29724535	-0.33387386	0.26066925	-1.28026605	-0.72757040	-0.06762278	-0.49049801	-2.19993134	-0.35830019	-0.52523138	-0.01985075	-0.12352879	1.59870214	-0.04513573	-0.93329076	-0.11756226	-0.43544301	0.49180572	-2.57063341
1683	16.82000000	-0.24385517	0.30918911	-0.29562594	-0.39828169	-0.05050465	-0.34306611	-0.22783783	0.27305149	-1.33020149	-0.68770206	-0.02917873	-0.46767770	-1.82778718	-0.34144356	0.27902846	-0.33922616	-0.09788964	1.47503425	0.05075359	-1.06726694	-0.15657532	0.22915824	-0.29431786	-1.67826803
1684	16.83000000	-0.24066084	0.35400960	-0.30744090	-0.39438475	-0.05648118	-0.34335447	-0.20300333	0.28432431	-1.37598486	-0.63640061	0.02381669	-0.43353167	-1.80171229	-0.05564318	1.01347430	-0.69649810	-0.09886715	1.15909074	0.05416425	-1.20918073	-0.16474708	-0.62391283	-1.51615893	-0.55469861
1685	16.84000000	-0.24022759	0.40249698	-0.30584057	-0.40629757	-0.05048240	-0.34242212	-0.27435922	0.28807891	-1.45628257	-0.58935439	0.08474259	-0.40228210	-1.88792127	0.02603052	1.59870973	-0.99377421	-0.16368827	0.74176853	-0.00805420	-1.38501916	-0.15258409	-1.33019005	-3.20110681	0.24380795
1686	16.85000000	-0.25448606	0.47595598	-0.29119907	-0.45848395	-0.03097762	-0.34784741	-0.32732506	0.30861293	-1.57313662	-0.56266359	0.13802072	-0.38652392	-1.87878887	-0.19448654	1.87979652	-1.20066521	-0.29010040	0.42232500	-0.00518856	-1.61458103	-0.14996705	-1.00686721	-3.05914208	0.33172181
1687	16.86000000	-0.27818967	0.57238583	-0.26846854	-0.51014336	0.00628149	-0.32867885	-0.39939844	0.33667438	-1.67256270	-0.54795263	0.18274505	-0.33743711	-1.56279389	-0.55307937	1.53717157	-1.33093947	-0.53910751	0.28891736	-0.02797482	-1.87180761	-0.15028085	-1.26209459	-2.08339911	0.55592744
1688	16.87000000	-0.27435024	0.63977606	-0.24139913	-0.49214624	-0.01001645	-0.34924331	-0.47871682	0.34922879	-1.73873881	-0.55000390	0.22791697	-0.27713053	-0.27346032	-1.08248174	0.34020858	-1.43967242	-0.81601055	0.40845482	0.00598172	-2.19374428	-0.14108707	-0.99206791	-3.86001961	0.99005242
1689	16.88000000	-0.25983860	0.64990419	-0.21045804	-0.39882745	-0.08823681	-0.40605915	-0.54904267	0.36528334	-1.78086391	-0.54611489	0.29903446	-0.21954541	1.27797342	-1.40356717	-0.45227963	-1.47418586	-0.92104366	0.77007609	0.07846270	-2.52315465	-0.11946426	-0.27730589	-4.55483709	1.00249038
1690	16.89000000	-0.25830824	0.65134705	-0.18493119	-0.26665385	-0.10478132	-0.45041035	-0.59101987	0.38838948	-1.83164316	-0.51538205	0.39208981	-0.14719497	1.48474277	-0.60476006	0.24531120	-1.48320466	-0.76507056	1.14560042	0.04379786	-2.90623825	-0.07661053	-0.06993214	-2.88810817	0.89694957
1691	16.90000000	-0.26972232	0.68148997	-0.16077506	-0.09436877	-0.03977777	-0.50052019	-0.58921661	0.41772275	-1.91145795	-0.47006490	0.47246318	-0.06038897	0.66377986	0.15505379	1.16328632	-1.47825488	-0.50772998	1.35969959	0.01552411	-3.31439848	-0.04513513	0.02549534	-2.52131085	0.71565384
1692	16.91000000	-0.27154550	0.69191733	-0.13907931	0.14604932	-0.02644797	-0.56890252	-0.57812405	0.44558291	-2.00995830	-0.41501247	0.56832861	0.06840573	-0.12776721	-0.05942374	1.47473638	-1.25486745	-0.24924852	1.31400046	0.02134707	-3.73044632	-0.03839744	-0.56392220	-1.99622906	0.05829021
1693	16.92000000	-0.25708857	0.65540234	-0.12423034	0.39298099	-0.09161461	-0.64808799	-0.58029305	0.46001699	-2.10347399	-0.36082733	0.72809850	0.22879232	-1.34216063	-0.01151885	1.69430192	-0.89224043	-0.01012708	0.91307644	0.08524536	-4.14180236	-0.06808224	-1.18563041	-0.71221204	-0.51347716
1694	16.93000000	-0.22566909	0.57185342	-0.12318434	0.57222721	-0.15183159	-0.72527240	-0.57321138	0.45453351	-2.16981260	-0.30782669	0.87068113	0.39264914	-3.16189652	0.43209963	1.64935707	-0.61050571	0.05306233	0.38480414	0.25166849	-4.55696624	-0.14988386	-0.36601416	-0.25629902	-0.47700568
1695	16.94000000	-0.18276156	0.48858546	-0.13893368	0.61054003	-0.15801305	-0.75134104	-0.60052270	0.42798886	-2.20381547	-0.27282678	0.94165823	0.56415126	-4.49113341	0.54409882	1.21924581	-0.52361711	-0.10214673	0.09692787	0.46660342	-5.01870631	-0.29096907	0.67910704	-0.31437500	-0.48645038
1696	16.95000000	-0.18858890	0.45229511	-0.15402994	0.43474018	-0.12026048	-0.66775019	-0.68447259	0.40864907	-2.21158314	-0.31002119	1.05085934	0.75088320	-4.85000198	0.25995345	0.91108456	-0.77807297	-0.27754079	0.19870975	0.67270681	-5.37277941	-0.41514084	0.60661037	-0.36426298	-0.69682194
1697	16.96000000	-0.23483183	0.40301897	-0.16386145	0.07849439	-0.08486353	-0.53814870	-0.66390082	0.41275199	-2.25058533	-0.45078709	1.23697880	0.96704193	-4.48579619	-0.08304825	0.88234181	-1.15922351	-0.31175512	0.67588251	1.08930346	-5.75016904	-0.52717855	0.42582709	-0.16196170	-0.74790174
1698	16.97000000	-0.26934841	0.31514627	-0.17684463	-0.31949660	-0.09773438	-0.47201550	-0.68838977	0.39579423	-2.34386854	-0.72477409	1.39892811	1.23657934	-3.51384364	-0.23976407	0.91486869	-1.20483672	-0.25100987	1.35291910	1.19503137	-5.96477707	-0.77180583	0.30499064	-0.16006960	-0.66133735
1699	16.98000000	-0.30436942	0.23809771	-0.19520790	-0.65533462	-0.13041444	-0.47782054	-0.96067449	0.34713184	-2.41189677	-1.09918381	1.48647953	1.52113534	-1.87823399	-0.30353797	0.84037255	-0.90060721	-0.17756417	1.84890947	0.86629895	-6.12601320	-1.17347651	0.17708724	-0.06944476	-0.53757148
1700	16.99000000	-0.36341630	0.15395128	-0.21852853	-0.91710569	-0.11199912	-0.51999408	-1.33615991	0.28006478	-2.41246840	-1.45062143	1.52909926	1.73522719	0.16254961	-0.49259143	0.71595384	-0.56366605	-0.14406196	1.96344402	0.69961222	-6.14765140	-1.54012437	0.18418577	-0.00367535	-0.38407522
1701	17	-0.44022212	0.04776619	-0.22653762	-1.05760351	0.00065493	-0.56740689	-1.65260899	0.19479017	-2.33612515	-1.72685484	1.52707480	1.87768327	2.12481868	-0.64891542	0.64106407	-0.40374008	-0.13842412	1.84346557	0.13412132	-5.69687934	-1.73305413	0.18484105	0.03798903	-0.25213788
